<?xml version="1.0" encoding="UTF-8" standalone="no"?>
<svg
   xmlns:dc="http://purl.org/dc/elements/1.1/"
   xmlns:cc="http://creativecommons.org/ns#"
   xmlns:rdf="http://www.w3.org/1999/02/22-rdf-syntax-ns#"
   xmlns:svg="http://www.w3.org/2000/svg"
   xmlns="http://www.w3.org/2000/svg"
   xmlns:sodipodi="http://sodipodi.sourceforge.net/DTD/sodipodi-0.dtd"
   xmlns:inkscape="http://www.inkscape.org/namespaces/inkscape"
   width="700pt"
   height="700pt"
   version="1.1"
   viewBox="0 0 700 700"
   id="svg1386"
   sodipodi:docname="noun-eye-3889443.svg"
   inkscape:version="1.0.2 (e86c870879, 2021-01-15)">
  <metadata
     id="metadata1390">
    <rdf:RDF>
      <cc:Work
         rdf:about="">
        <dc:format>image/svg+xml</dc:format>
        <dc:type
           rdf:resource="http://purl.org/dc/dcmitype/StillImage" />
        <dc:title></dc:title>
      </cc:Work>
    </rdf:RDF>
  </metadata>
  <sodipodi:namedview
     pagecolor="#ffffff"
     bordercolor="#666666"
     borderopacity="1"
     objecttolerance="10"
     gridtolerance="10"
     guidetolerance="10"
     inkscape:pageopacity="0"
     inkscape:pageshadow="2"
     inkscape:window-width="1916"
     inkscape:window-height="1003"
     id="namedview1388"
     showgrid="false"
     inkscape:zoom="0.495"
     inkscape:cx="991.39446"
     inkscape:cy="293.50649"
     inkscape:window-x="0"
     inkscape:window-y="44"
     inkscape:window-maximized="1"
     inkscape:current-layer="g1384" />
  <defs
     id="defs1364">
    <symbol
       id="g"
       overflow="visible">
      <path
         d="m39.078-2.3281c-2.0117 1.043-4.1094 1.8281-6.2969 2.3594s-4.4648 0.79688-6.8281 0.79688c-7.0859 0-12.699-1.9766-16.844-5.9375-4.1367-3.957-6.2031-9.3281-6.2031-16.109 0-6.7891 2.0664-12.164 6.2031-16.125 4.1445-3.9688 9.7578-5.9531 16.844-5.9531 2.3633 0 4.6406 0.26562 6.8281 0.79688s4.2852 1.3242 6.2969 2.375v8.7969c-2.0312-1.3828-4.0391-2.3984-6.0156-3.0469-1.9688-0.64453-4.0469-0.96875-6.2344-0.96875-3.9062 0-6.9844 1.2578-9.2344 3.7656-2.2422 2.5-3.3594 5.9531-3.3594 10.359 0 4.3867 1.1172 7.8359 3.3594 10.344 2.25 2.5 5.3281 3.75 9.2344 3.75 2.1875 0 4.2656-0.32031 6.2344-0.96875 1.9766-0.64453 3.9844-1.6602 6.0156-3.0469z"
         id="path1343" />
    </symbol>
    <symbol
       id="f"
       overflow="visible">
      <path
         d="m16.031-40.953v9.0625h10.516v7.2812h-10.516v13.531c0 1.4805 0.28906 2.4805 0.875 3 0.59375 0.52344 1.7656 0.78125 3.5156 0.78125h5.2344v7.2969h-8.7344c-4.0312 0-6.8867-0.83594-8.5625-2.5156-1.6797-1.6875-2.5156-4.5391-2.5156-8.5625v-13.531h-5.0781v-7.2812h5.0781v-9.0625z"
         id="path1346" />
    </symbol>
    <symbol
       id="a"
       overflow="visible">
      <path
         d="m26.594-27.234v-17.078h10.266v44.312h-10.266v-4.6094c-1.3984 1.875-2.9453 3.25-4.6406 4.125-1.6875 0.875-3.6406 1.3125-5.8594 1.3125-3.9297 0-7.1562-1.5625-9.6875-4.6875-2.5234-3.125-3.7812-7.1445-3.7812-12.062 0-4.9141 1.2578-8.9375 3.7812-12.062 2.5312-3.125 5.7578-4.6875 9.6875-4.6875 2.1953 0 4.1445 0.44531 5.8438 1.3281 1.707 0.88672 3.2578 2.2578 4.6562 4.1094zm-6.7188 20.656c2.1875 0 3.8516-0.79688 5-2.3906 1.1445-1.5938 1.7188-3.9102 1.7188-6.9531 0-3.0391-0.57422-5.3594-1.7188-6.9531-1.1484-1.5938-2.8125-2.3906-5-2.3906-2.168 0-3.8242 0.79688-4.9688 2.3906-1.1484 1.5938-1.7188 3.9141-1.7188 6.9531 0 3.043 0.57031 5.3594 1.7188 6.9531 1.1445 1.5938 2.8008 2.3906 4.9688 2.3906z"
         id="path1349" />
    </symbol>
    <symbol
       id="e"
       overflow="visible">
      <path
         d="m21.875-6.5781c2.1758 0 3.8359-0.79688 4.9844-2.3906 1.1562-1.5938 1.7344-3.9102 1.7344-6.9531 0-3.0391-0.57812-5.3594-1.7344-6.9531-1.1484-1.5938-2.8086-2.3906-4.9844-2.3906-2.1875 0-3.8672 0.80469-5.0312 2.4062-1.168 1.6055-1.75 3.918-1.75 6.9375 0 3.0234 0.58203 5.3359 1.75 6.9375 1.1641 1.6055 2.8438 2.4062 5.0312 2.4062zm-6.7812-20.656c1.4062-1.8516 2.9609-3.2227 4.6719-4.1094 1.707-0.88281 3.6719-1.3281 5.8906-1.3281 3.9375 0 7.1641 1.5625 9.6875 4.6875 2.5195 3.125 3.7812 7.1484 3.7812 12.062 0 4.918-1.2617 8.9375-3.7812 12.062-2.5234 3.125-5.75 4.6875-9.6875 4.6875-2.2188 0-4.1836-0.44531-5.8906-1.3281-1.7109-0.88281-3.2656-2.2539-4.6719-4.1094v4.6094h-10.188v-44.312h10.188z"
         id="path1352" />
    </symbol>
    <symbol
       id="d"
       overflow="visible">
      <path
         d="m5.3594-42.516h10.953v16.203h16.188v-16.203h10.969v42.516h-10.969v-18.031h-16.188v18.031h-10.953z"
         id="path1355" />
    </symbol>
    <symbol
       id="c"
       overflow="visible">
      <path
         d="m4.9062-31.891h10.188v31.891h-10.188zm0-12.422h10.188v8.3125h-10.188z"
         id="path1358" />
    </symbol>
    <symbol
       id="b"
       overflow="visible">
      <path
         d="m5.3594-42.516h13.953l9.6875 22.75 9.7344-22.75h13.922v42.516h-10.359v-31.094l-9.7969 22.922h-6.9531l-9.7969-22.922v31.094h-10.391z"
         id="path1361" />
    </symbol>
  </defs>
  <g
     id="g1384">
    <path
       d="m504.23 256.67c-11.262-31.984-32.117-59.711-59.719-79.398-27.605-19.691-60.609-30.383-94.516-30.621-86.215 0-137.67 75.02-151.67 110.02-2.8516 6.9258-7.707 12.848-13.941 17.004s-13.566 6.3594-21.059 6.3281c7.168 0.015625 14.148 2.2734 19.965 6.457 5.8203 4.1836 10.18 10.086 12.469 16.875 11.262 31.984 32.117 59.711 59.719 79.398 27.605 19.691 60.609 30.383 94.516 30.621 86.215 0 137.67-75.367 151.67-110.25 2.8516-6.9297 7.707-12.852 13.941-17.008s13.566-6.3594 21.059-6.3281c-7.1406 0.003906-14.098-2.2188-19.914-6.3594-5.8125-4.1406-10.191-9.9922-12.52-16.738zm-154.23 93.332c-18.566 0-36.371-7.375-49.496-20.504-13.129-13.125-20.504-30.93-20.504-49.496s7.375-36.371 20.504-49.496c13.125-13.129 30.93-20.504 49.496-20.504s36.371 7.375 49.496 20.504c13.129 13.125 20.504 30.93 20.504 49.496s-7.375 36.371-20.504 49.496c-13.125 13.129-30.93 20.504-49.496 20.504z"
       id="path1366" />
  </g>
</svg>
